<svg width="12" height="14" viewBox="0 0 12 14" fill="none" xmlns="http://www.w3.org/2000/svg">
<path d="M11.088 11.668C11.244 11.836 11.322 12.022 11.322 12.226C11.322 12.454 11.232 12.658 11.052 12.838C10.872 13.006 10.668 13.09 10.44 13.09C10.188 13.09 9.972 12.982 9.792 12.766L5.886 7.852L1.962 12.766C1.782 12.982 1.572 13.09 1.332 13.09C1.104 13.09 0.900001 13.006 0.720001 12.838C0.540001 12.658 0.450001 12.454 0.450001 12.226C0.450001 12.034 0.522001 11.848 0.666001 11.668L4.806 6.538L0.864001 1.642C0.720001 1.486 0.648001 1.3 0.648001 1.084C0.648001 0.855999 0.732001 0.657999 0.900001 0.489999C1.08 0.309999 1.284 0.219999 1.512 0.219999C1.764 0.219999 1.98 0.327999 2.16 0.543999L5.886 5.242L9.612 0.543999C9.78 0.327999 9.996 0.219999 10.26 0.219999C10.488 0.219999 10.692 0.309999 10.872 0.489999C11.052 0.657999 11.142 0.855999 11.142 1.084C11.142 1.288 11.064 1.474 10.908 1.642L6.966 6.538L11.088 11.668Z" fill="white" fill-opacity="0.5"/>
</svg>
